<?xml version="1.0" encoding="UTF-8"?>
<svg width="329px" height="44px" viewBox="0 0 329 44" version="1.1" xmlns="http://www.w3.org/2000/svg" xmlns:xlink="http://www.w3.org/1999/xlink">
    <!-- Generator: Sketch 61 (89581) - https://sketch.com -->
    <title>Group 5 Copy</title>
    <desc>Created with Sketch.</desc>
    <defs>
        <linearGradient x1="34.5470042%" y1="14.1784748%" x2="78.370488%" y2="85.8215252%" id="linearGradient-1">
            <stop stop-color="#FFFFFF" offset="0%"></stop>
            <stop stop-color="#F0F0F0" offset="100%"></stop>
        </linearGradient>
        <path d="M9.6876414,6 L17.0321228,16.734242 L13.3066426,21.9147228 L1.52407822,4.69405175 C0.161785945,2.7030092 1.58751359,-2.55795385e-13 4,-2.55795385e-13 L31.5145373,-2.55795385e-13 C33.1786014,-2.55795385e-13 34.8012491,0.518914869 36.1565282,1.48448613 C39.7549471,4.04818689 40.593752,9.0435719 38.0300512,12.6419909 L24.7050893,31.3449518 C23.7437016,32.6943589 21.8704322,33.0089107 20.5210251,32.047523 C19.171618,31.0861352 18.8570662,29.2128658 19.8184539,27.8634587 L33.1434158,9.16049771 C33.784341,8.26089298 33.5746398,7.01204672 32.675035,6.37112153 C32.3362153,6.12972872 31.9305533,6 31.5145373,6 L9.6876414,6 Z" id="path-2"></path>
        <rect id="path-4" x="5.31232162" y="16.6397121" width="21" height="9"></rect>
        <filter x="-61.9%" y="-122.2%" width="223.8%" height="388.9%" filterUnits="objectBoundingBox" id="filter-5">
            <feOffset dx="0" dy="2" in="SourceAlpha" result="shadowOffsetOuter1"></feOffset>
            <feGaussianBlur stdDeviation="4" in="shadowOffsetOuter1" result="shadowBlurOuter1"></feGaussianBlur>
            <feColorMatrix values="0 0 0 0 0   0 0 0 0 0.192156863   0 0 0 0 0.615686275  0 0 0 1 0" type="matrix" in="shadowBlurOuter1"></feColorMatrix>
        </filter>
        <linearGradient x1="89.3704399%" y1="91.4970451%" x2="9.86045862%" y2="14.1784748%" id="linearGradient-6">
            <stop stop-color="#F3519C" offset="0%"></stop>
            <stop stop-color="#E42863" offset="100%"></stop>
        </linearGradient>
        <path d="M9.09278051,6 L16.4359749,16.7323611 L12.716387,21.9214536 L0.929217325,4.69405175 C-0.433074946,2.7030092 0.992652701,-2.55795385e-13 3.40513911,-2.55795385e-13 L30.9196764,-2.55795385e-13 C32.5837405,-2.55795385e-13 34.2063882,0.518914869 35.5616673,1.48448613 C39.1600862,4.04818689 39.9988911,9.0435719 37.4351903,12.6419909 L24.1102285,31.3449518 C23.1488407,32.6943589 21.2755713,33.0089107 19.9261642,32.047523 C18.5767571,31.0861352 18.2622053,29.2128658 19.2235931,27.8634587 L32.5485549,9.16049771 C33.1894801,8.26089298 32.9797789,7.01204672 32.0801742,6.37112153 C31.7413544,6.12972872 31.3356925,6 30.9196764,6 L9.09278051,6 Z" id="path-7"></path>
        <rect id="path-9" x="13.9078131" y="6.84581945" width="21" height="8"></rect>
        <filter x="-61.9%" y="-187.5%" width="223.8%" height="425.0%" filterUnits="objectBoundingBox" id="filter-10">
            <feOffset dx="0" dy="-2" in="SourceAlpha" result="shadowOffsetOuter1"></feOffset>
            <feGaussianBlur stdDeviation="4" in="shadowOffsetOuter1" result="shadowBlurOuter1"></feGaussianBlur>
            <feColorMatrix values="0 0 0 0 0   0 0 0 0 0.192156863   0 0 0 0 0.615686275  0 0 0 1 0" type="matrix" in="shadowBlurOuter1"></feColorMatrix>
        </filter>
    </defs>
    <g id="Symbols" stroke="none" stroke-width="1" fill="none" fill-rule="evenodd">
        <g id="footer" transform="translate(-136.000000, -49.000000)">
            <g id="Group-5-Copy" transform="translate(135.000000, 49.000000)">
                <g id="Group-4">
                    <path d="M75.084,7.012 L75.084,13.438 L69.078,13.438 L69.078,37 L61.812,37 L61.812,13.438 L55.806,13.438 L55.806,7.012 L75.084,7.012 Z M95.664,13.438 L86.844,13.438 L86.844,18.772 L95.16,18.772 L95.16,25.198 L86.844,25.198 L86.844,30.574 L95.664,30.574 L95.664,37 L79.536,37 L79.536,7.012 L95.664,7.012 L95.664,13.438 Z M124.56,7.012 L110.448,30.49 L123.93,30.49 L123.93,37 L98.436,37 L112.506,13.522 L100.116,13.522 L100.116,7.012 L124.56,7.012 Z M143.308,30.574 L151.33,30.574 L151.33,37 L136,37 L136,7.012 L143.308,7.012 L143.308,30.574 Z M184.676,22.09 C184.676,30.616 177.788,37.504 169.262,37.504 C160.736,37.504 153.848,30.616 153.848,22.09 C153.848,13.564 160.736,6.676 169.262,6.676 C177.788,6.676 184.676,13.564 184.676,22.09 Z M161.072,22.048 C161.072,26.584 164.726,30.238 169.262,30.238 C173.798,30.238 177.452,26.584 177.452,22.048 C177.452,17.512 173.798,13.858 169.262,13.858 C164.726,13.858 161.072,17.512 161.072,22.048 Z M212.102,20.242 L206.516,37 L202.232,37 L196.604,20.242 L194.042,37 L186.734,37 L191.522,7.012 L199.25,7.012 L204.374,23.224 L209.834,7.012 L217.436,7.012 L221.804,37 L214.538,37 L212.102,20.242 Z M244.022,15.076 C244.022,18.604 242.762,20.284 241.25,20.956 C244.148,21.754 246.374,24.022 246.374,28.306 C246.374,34.102 242.342,37 236.924,37 L225.122,37 L225.122,7.012 L235.16,7.012 C240.578,7.012 244.022,10.246 244.022,15.076 Z M232.43,18.562 L233.816,18.562 C235.664,18.562 236.756,17.512 236.756,15.622 C236.756,13.858 235.664,12.556 233.816,12.556 L232.43,12.556 L232.43,18.562 Z M232.43,31.414 L235.58,31.414 C237.596,31.414 239.108,30.196 239.108,27.802 C239.108,25.492 237.596,24.148 235.58,24.148 L232.43,24.148 L232.43,31.414 Z M257.924,7.012 L266.282,7.012 L275.522,37 L268.256,37 L266.912,32.674 L257.378,32.674 L255.992,37 L248.684,37 L257.924,7.012 Z M262.208,16.798 L259.352,25.996 L264.938,25.996 L262.208,16.798 Z M285.98,37 L278.672,37 L278.672,7.012 L289.886,7.012 C295.262,7.012 299.504,10.582 299.504,16.462 C299.504,20.956 296.984,24.106 293.414,25.324 L300.974,37 L292.994,37 L285.98,25.912 L285.98,37 Z M285.98,19.444 L289.214,19.444 C291.314,19.444 292.238,18.226 292.238,16.462 C292.238,14.698 291.062,13.438 289.214,13.438 L285.98,13.438 L285.98,19.444 Z M329.786,22.048 C329.786,29.524 324.956,37 315.254,37 L304.964,37 L304.964,7.012 L315.254,7.012 C324.914,7.012 329.786,14.53 329.786,22.048 Z M313.272,30.616 L315.162,30.616 C320.202,30.616 323.1,26.542 323.1,22.09 C323.1,17.638 320.16,13.438 315.162,13.438 L313.272,13.438 L313.272,30.616 Z" id="tez-lombard" fill="#FFFFFF"></path>
                    <g id="Group">
                        <g id="Group-3">
                            <mask id="mask-3" fill="white">
                                <use xlink:href="#path-2"></use>
                            </mask>
                            <use id="Path-12" fill="url(#linearGradient-1)" fill-rule="nonzero" xlink:href="#path-2"></use>
                            <g id="Rectangle-Copy" opacity="0.5" fill-rule="nonzero" mask="url(#mask-3)" transform="translate(15.812322, 21.139712) scale(1, -1) rotate(54.000000) translate(-15.812322, -21.139712) " fill="black" fill-opacity="1">
                                <use filter="url(#filter-5)" xlink:href="#path-4"></use>
                            </g>
                        </g>
                        <g id="Group-2" transform="translate(5.000000, 11.000000)">
                            <mask id="mask-8" fill="white">
                                <use xlink:href="#path-7"></use>
                            </mask>
                            <use id="Path-12-Copy" fill="url(#linearGradient-6)" fill-rule="nonzero" transform="translate(19.660153, 16.302221) scale(-1, -1) translate(-19.660153, -16.302221) " xlink:href="#path-7"></use>
                            <g id="Rectangle" opacity="0.5" fill-rule="nonzero" mask="url(#mask-8)" transform="translate(24.407813, 10.845819) scale(1, -1) rotate(55.000000) translate(-24.407813, -10.845819) " fill="black" fill-opacity="1">
                                <use filter="url(#filter-10)" xlink:href="#path-9"></use>
                            </g>
                        </g>
                    </g>
                </g>
            </g>
        </g>
    </g>
</svg>